<svg width="800" height="800" viewBox="0 0 800 800" fill="none" xmlns="http://www.w3.org/2000/svg">
<rect width="800" height="800" rx="251" fill="black"/>
<path d="M275.532 548.792C275.532 571.661 263.585 583.096 239.692 583.096C228.087 583.096 218.871 580.195 212.044 574.392C205.217 568.589 201.804 560.056 201.804 548.792V337.336C201.804 297.059 210.337 266.68 227.404 246.2C244.812 225.379 270.412 214.968 304.204 214.968C329.121 214.968 349.772 220.088 366.156 230.328C382.54 240.568 393.463 255.245 398.924 274.36C404.385 255.245 415.308 240.568 431.692 230.328C448.076 220.088 469.068 214.968 494.668 214.968C529.484 214.968 555.255 225.037 571.98 245.176C588.705 264.973 597.068 295.693 597.068 337.336V543.672C597.068 557.667 594.337 567.736 588.876 573.88C583.415 580.024 574.199 583.096 561.228 583.096C548.257 583.096 538.7 580.024 532.556 573.88C526.412 567.395 523.34 557.325 523.34 543.672V333.24C523.34 299.448 508.833 282.552 479.82 282.552C465.143 282.552 454.22 287.501 447.052 297.4C439.884 306.957 436.3 322.317 436.3 343.48V538.552C436.3 552.547 433.569 562.616 428.108 568.76C422.647 574.904 413.431 577.976 400.46 577.976C387.489 577.976 377.932 574.904 371.788 568.76C365.644 562.275 362.572 552.205 362.572 538.552V343.48C362.572 302.861 348.065 282.552 319.052 282.552C290.039 282.552 275.532 299.448 275.532 333.24V548.792Z" fill="#F2F2F7"/>
</svg>
